<svg viewBox="0 0 60 60" fill="none" xmlns="http://www.w3.org/2000/svg">
<path d="M30.0029 1.00195C13.9852 1.00195 1 14.0861 1 30.2261C1 43.0589 9.21001 53.9624 20.6267 57.8892L20.8317 57.9496C22.2822 58.2244 22.8141 57.3221 22.8141 56.5445C22.8141 55.8507 22.7909 54.0111 22.7773 51.577C14.7104 53.3407 13.0085 47.6561 13.0085 47.6561C12.4515 45.8534 11.3104 44.3723 9.8115 43.3999L9.78055 43.3824C7.15412 41.57 9.98363 41.607 9.98363 41.607C11.8925 41.8779 13.492 43.0062 14.4107 44.5887L14.4261 44.6179C15.4976 46.5569 17.5206 47.847 19.8434 47.847C20.9574 47.847 22.0018 47.5508 22.903 47.0305L22.8721 47.0461C23.0113 45.5046 23.6863 44.1443 24.7075 43.1388L24.7094 43.1368C18.2691 42.406 11.498 39.8921 11.498 28.6963C11.498 28.6436 11.496 28.5832 11.496 28.5228C11.496 25.5587 12.6313 22.8616 14.488 20.8485L14.4822 20.8563C14.0896 19.8 13.8614 18.5801 13.8614 17.3075C13.8614 15.7933 14.1824 14.3531 14.7607 13.0552L14.7336 13.1215C14.7336 13.1215 17.1628 12.3381 22.7096 16.1168C24.8835 15.4912 27.3803 15.1307 29.9604 15.1307C32.5404 15.1307 35.0372 15.4912 37.4045 16.1636L37.2111 16.1168C42.7212 12.3381 45.1503 13.1215 45.1503 13.1215C45.7015 14.3726 46.0226 15.8303 46.0226 17.364C46.0226 18.6151 45.8098 19.8156 45.4172 20.9303L45.4404 20.8563C47.2836 22.8674 48.415 25.5645 48.415 28.5287C48.415 28.5891 48.415 28.6475 48.413 28.706V28.6963C48.413 39.9233 41.6342 42.3943 35.1803 43.1134C36.4026 44.3743 37.1569 46.099 37.1569 48.0029C37.1569 48.1842 37.1492 48.3654 37.1356 48.5447L37.1376 48.5213C37.1376 52.4326 37.1008 55.574 37.1008 56.5231C37.1008 57.2909 37.6076 58.2029 39.0948 57.9106C50.7532 53.9565 59 43.0433 59 30.1871C59 14.0667 46.0303 1 30.0338 1C30.0222 1 30.0087 1 29.9971 1H29.999L30.0029 1.00195Z" fill="#252422"/>
</svg>
