<svg viewBox="0 0 57 57" fill="none" xmlns="http://www.w3.org/2000/svg">
<path fill-rule="evenodd" clip-rule="evenodd" d="M44.2902 9.27506C46.7833 8.22532 49.456 10.3335 49.0158 13.0026L43.8163 44.5284C43.3148 47.568 39.9763 49.3122 37.1876 47.7974C34.854 46.5299 31.3918 44.579 28.2714 42.5401C26.7133 41.5219 21.9423 38.2572 22.5287 35.9332C23.0302 33.9461 31.0508 26.4801 35.6341 22.04C37.4344 20.2959 36.6145 19.2883 34.4883 20.8942C29.2138 24.8778 20.7456 30.9344 17.9453 32.639C15.4746 34.1428 14.1846 34.3994 12.6458 34.1428C9.83595 33.6746 7.23085 32.9495 5.104 32.0679C2.2294 30.8762 2.36943 26.9258 5.10205 25.7754L44.2902 9.27506Z" fill="#22211F"/>
</svg>
