<svg viewBox="0 0 736 129" fill="none" xmlns="http://www.w3.org/2000/svg">
<path d="M516.442 2.5C530.244 2.50005 542.431 5.00554 552.933 10.1006H552.932C563.505 15.1815 571.771 22.3246 577.64 31.541L578.193 32.4131C583.816 41.4706 586.591 51.9619 586.591 63.7998C586.591 76.0197 583.634 86.8054 577.64 96.0596L577.639 96.0586C571.768 105.277 563.501 112.423 552.924 117.504L552.923 117.503C542.423 122.595 530.24 125.1 516.442 125.1C502.639 125.1 490.406 122.594 479.809 117.504L479.8 117.499C469.32 112.415 461.059 105.27 455.093 96.0596L455.087 96.0508L455.082 96.042C449.195 86.79 446.291 76.0111 446.291 63.7998C446.291 51.5886 449.195 40.8096 455.082 31.5576L455.087 31.5498L455.093 31.541C461.059 22.3307 469.32 15.1852 479.8 10.1006L479.809 10.0967C490.406 5.00605 502.639 2.5 516.442 2.5ZM105.919 5.0498L106.581 6.52832L156.982 119.028L158.559 122.55H115.687L115.044 121.017L107.2 102.3H55.2289L47.3549 121.02L46.7104 122.55H3.99551L5.56778 119.03L55.8178 6.53027L56.4789 5.0498H105.919ZM210.684 5.0498V44.7998H258.334V5.0498H298.285V122.55H258.334V80.7002H210.684V122.55H170.735V5.0498H210.684ZM438.424 5.0498V41.0996H396.724V122.55H356.774V41.0996H315.075V5.0498H438.424ZM645.35 5.0498V44.7998H693V5.0498H732.951V122.55H693V80.7002H645.35V122.55H605.401V5.0498H645.35ZM516.442 38.5498C510.024 38.5498 504.602 39.6514 500.104 41.7627L500.093 41.7676L500.083 41.7725C495.699 43.7821 492.389 46.6641 490.067 50.416L490.06 50.4277L490.053 50.4385C487.749 54.0726 486.541 58.4901 486.541 63.7998C486.541 69.0972 487.743 73.5692 490.053 77.3115L490.5 77.9893C492.794 81.3309 495.967 84.0001 500.1 85.9844C504.602 87.9986 510.026 89.0498 516.442 89.0498C522.873 89.0498 528.247 87.9934 532.644 85.9795C537.148 83.8626 540.502 80.9725 542.816 77.334C545.135 73.5871 546.341 69.1078 546.341 63.7998C546.341 58.4901 545.135 54.0726 542.83 50.4385L542.823 50.4277L542.816 50.416C540.502 46.6776 537.154 43.7945 532.667 41.7803L532.611 41.7549C528.224 39.6528 522.862 38.5499 516.442 38.5498ZM69.0678 69.4004H93.4115L81.2611 40.4102L69.0678 69.4004Z" stroke="currentColor" stroke-width="5"/>
</svg>
