<svg viewBox="0 0 573 128" fill="none" xmlns="http://www.w3.org/2000/svg">
<path d="M42.4688 6V67.1719L88.8379 6.97461L89.5879 6H132.636L129.367 10.0664L92.6299 55.7588L131.209 119.709L133.496 123.5H88.0225L87.3018 122.247L67.2236 87.3584L38.917 122.566L38.166 123.5H2.81836V6H42.4688ZM183.594 6V77.1826L228.641 7.14746L229.379 6H278.844V123.5H239.344V50.0361L192.948 122.35L192.21 123.5H144.094V6H183.594ZM418.661 6V123.5H378.711V84.5H367.245L340.658 122.435L339.912 123.5H293.655L296.539 119.53L324.89 80.5059C323.752 80.1047 322.641 79.6654 321.556 79.1885L321.541 79.1826L321.526 79.1758C314.558 76.0081 309.033 71.5282 305.049 65.7129L305.04 65.7002L305.031 65.6865C301.128 59.8317 299.211 53.0376 299.211 45.4004C299.211 37.5772 301.121 30.6374 305.02 24.6807L305.028 24.668L305.037 24.6543C309.014 18.7423 314.531 14.1592 321.498 10.8867C328.492 7.6016 336.569 6.00001 345.661 6H418.661ZM482.122 6V45.75H529.771V6H569.722V123.5H529.771V81.6504H482.122V123.5H442.172V6H482.122ZM350.911 35.75C346.894 35.75 344.083 36.7066 342.169 38.3145C340.346 39.8462 339.312 42.0806 339.312 45.4004C339.312 48.7199 340.346 50.9537 342.169 52.4854C344.083 54.0932 346.894 55.0498 350.911 55.0498H378.711V35.75H350.911Z" stroke="currentColor" stroke-width="5"/>
</svg>
